<?xml version="1.0" encoding="UTF-8"?>
<svg id="Layer_1" xmlns="http://www.w3.org/2000/svg" version="1.1" xmlns:xlink="http://www.w3.org/1999/xlink" viewBox="0 0 1080 1080">
  <!-- Generator: Adobe Illustrator 29.3.1, SVG Export Plug-In . SVG Version: 2.1.0 Build 151)  -->
  <defs>
    <style>
      .st0 {
        fill: #426caa;
      }

      .st1 {
        fill: #33517f;
      }

      .st2 {
        fill: #de5d2c;
      }

      .st3 {
        fill: #de5e2c;
      }

      .st4 {
        fill: #df662c;
      }

      .st5 {
        fill: #e7982a;
      }

      .st6 {
        fill: #e7942a;
      }

      .st7 {
        fill: #eaa829;
      }

      .st8 {
        fill: #e5872b;
      }

      .st9 {
        fill: #e89b2a;
      }

      .st10 {
        fill: #e37e2b;
      }

      .st11 {
        fill: #e1722b;
      }

      .st12 {
        fill: #e1702b;
      }

      .st13 {
        fill: #3c629b;
      }

      .st14 {
        fill: #e7972a;
      }

      .st15 {
        fill: #e37a2b;
      }

      .st16 {
        fill: #eaa729;
      }

      .st17 {
        fill: #e58b2a;
      }

      .st18 {
        fill: #416aa8;
      }

      .st19 {
        fill: #e7952a;
      }

      .st20 {
        fill: #e4842b;
      }

      .st21 {
        fill: #395d92;
      }

      .st22 {
        fill: #4572b4;
      }

      .st23 {
        fill: #e9a629;
      }

      .st24 {
        fill: #416ba8;
      }

      .st25 {
        fill: #e0672c;
      }

      .st26 {
        fill: #df652c;
      }

      .st27 {
        fill: #e89e2a;
      }

      .st28 {
        fill: #df622c;
      }

      .st29 {
        fill: #294063;
      }

      .st30 {
        fill: #4069a5;
      }

      .st31 {
        fill: #de602c;
      }

      .st32 {
        fill: #e37b2b;
      }

      .st33 {
        fill: #e68f2a;
      }

      .st34 {
        fill: #e8a02a;
      }

      .st35, .st36 {
        fill: #fff;
      }

      .st37 {
        fill: #e2742b;
      }

      .st38 {
        fill: #4470b1;
      }

      .st39 {
        fill: #385b90;
      }

      .st40 {
        fill: url(#linear-gradient1);
      }

      .st41 {
        fill: #314e7b;
      }

      .st42 {
        fill: #e06a2c;
      }

      .st43 {
        fill: #426dab;
      }

      .st44 {
        fill: #355687;
      }

      .st45 {
        fill: #e2772b;
      }

      .st46 {
        fill: #eaab29;
      }

      .st47 {
        fill: #e0682c;
      }

      .st48 {
        fill: #2e4972;
      }

      .st49 {
        fill: #e89a2a;
      }

      .st50 {
        fill: #e37d2b;
      }

      .st51 {
        fill: #436eae;
      }

      .st52 {
        fill: #273c5d;
      }

      .st53 {
        fill: #365789;
      }

      .st54 {
        fill: #3b5f96;
      }

      .st55 {
        fill: #2f4a74;
      }

      .st56 {
        fill: #32507e;
      }

      .st57 {
        fill: none;
      }

      .st58 {
        fill: #345484;
      }

      .st59 {
        fill: #e2762b;
      }

      .st60 {
        fill: #e4822b;
      }

      .st61 {
        fill: #4673b6;
      }

      .st62 {
        fill: #e9a329;
      }

      .st63 {
        fill: #3d649e;
      }

      .st64 {
        fill: #355586;
      }

      .st65 {
        fill: #df612c;
      }

      .st66 {
        fill: #e16e2b;
      }

      .st67 {
        fill: #e06b2b;
      }

      .st36 {
        font-family: Montserrat-Bold, Montserrat;
        font-size: 85.44px;
        font-weight: 700;
        letter-spacing: .2em;
      }

      .st68 {
        fill: #375a8d;
      }

      .st69 {
        fill: #e1732b;
      }

      .st70 {
        clip-path: url(#clippath-1);
      }

      .st71 {
        fill: #e1712b;
      }

      .st72 {
        fill: #3d649d;
      }

      .st73 {
        fill: #e68e2a;
      }

      .st74 {
        fill: #2e4870;
      }

      .st75 {
        fill: #e58d2a;
      }

      .st76 {
        fill: #36588a;
      }

      .st77 {
        fill: #416ba9;
      }

      .st78 {
        fill: #324f7c;
      }

      .st79 {
        fill: #ebaf29;
      }

      .st80 {
        fill: #3a5e93;
      }

      .st81 {
        fill: #2c466c;
      }

      .st82 {
        fill: #e06c2b;
      }

      .st83 {
        fill: #e4802b;
      }

      .st84 {
        fill: #3f67a2;
      }

      .st85 {
        fill: #e9a529;
      }

      .st86 {
        fill: #e89c2a;
      }

      .st87 {
        fill: #e7962a;
      }

      .st88 {
        fill: #e89d2a;
      }

      .st89 {
        fill: #e37f2b;
      }

      .st90 {
        fill: #2b4369;
      }

      .st91 {
        fill: #426dac;
      }

      .st92 {
        clip-path: url(#clippath-3);
      }

      .st93 {
        fill: #ebae29;
      }

      .st94 {
        fill: #e4852b;
      }

      .st95 {
        fill: #335281;
      }

      .st96 {
        fill: #2a4165;
      }

      .st97 {
        fill: #df632c;
      }

      .st98 {
        fill: #2d476e;
      }

      .st99 {
        fill: #bf455e;
      }

      .st100 {
        fill: #eaac29;
      }

      .st101 {
        fill: #4572b3;
      }

      .st102 {
        fill: #eaa929;
      }

      .st103 {
        fill: #e0692c;
      }

      .st104 {
        fill: #4571b3;
      }

      .st105 {
        fill: #2c446b;
      }

      .st106 {
        fill: #3d639c;
      }

      .st107 {
        fill: #e7992a;
      }

      .st108 {
        fill: #3c629a;
      }

      .st109 {
        fill: #e4812b;
      }

      .st110 {
        fill: #3b6097;
      }

      .st111 {
        fill: #3e659f;
      }

      .st112 {
        fill: #ebad29;
      }

      .st113 {
        fill: #304c77;
      }

      .st114 {
        fill: #283d5f;
      }

      .st115 {
        fill: #e5882a;
      }

      .st116 {
        fill: #e58a2a;
      }

      .st117 {
        fill: #e6922a;
      }

      .st118 {
        fill: #ebb029;
      }

      .st119 {
        fill: #de5f2c;
      }

      .st120 {
        fill: #e9a12a;
      }

      .st121 {
        fill: #3f68a4;
      }

      .st122 {
        fill: #395c91;
      }

      .st123 {
        fill: #e58c2a;
      }

      .st124 {
        fill: #426cab;
      }

      .st125 {
        fill: #e5892a;
      }

      .st126 {
        fill: #385b8e;
      }

      .st127 {
        fill: #4573b5;
      }

      .st128 {
        fill: #2a4267;
      }

      .st129 {
        fill: #e4832b;
      }

      .st130 {
        fill: #314d79;
      }

      .st131 {
        fill: #e16d2b;
      }

      .st132 {
        fill: #e16f2b;
      }

      .st133 {
        fill: #e6902a;
      }

      .st134 {
        fill: #2f4b75;
      }

      .st135 {
        clip-path: url(#clippath-2);
      }

      .st136 {
        fill: #436ead;
      }

      .st137 {
        fill: #3e66a0;
      }

      .st138 {
        fill: #e6932a;
      }

      .st139 {
        fill: #e37c2b;
      }

      .st140 {
        fill: #3f68a3;
      }

      .st141 {
        fill: #436faf;
      }

      .st142 {
        fill: #e2792b;
      }

      .st143 {
        fill: #eaaa29;
      }

      .st144 {
        fill: #406aa7;
      }

      .st145 {
        fill: #283e61;
      }

      .st146 {
        fill: #345383;
      }

      .st147 {
        fill: #df642c;
      }

      .st148 {
        fill: #3a5f95;
      }

      .st149 {
        fill: #3e66a1;
      }

      .st150 {
        fill: url(#linear-gradient);
      }

      .st151 {
        fill: #e2782b;
      }

      .st152 {
        fill: #e6912a;
      }

      .st153 {
        clip-path: url(#clippath);
      }

      .st154 {
        fill: #4674b6;
      }

      .st155 {
        fill: #4470b0;
      }

      .st156 {
        fill: #4471b2;
      }

      .st157 {
        fill: #4674b7;
      }

      .st158 {
        fill: #3b6198;
      }

      .st159 {
        fill: #4069a6;
      }

      .st160 {
        fill: #e89f2a;
      }

      .st161 {
        fill: #e9a429;
      }

      .st162 {
        fill: #37598b;
      }

      .st163 {
        fill: #e2752b;
      }

      .st164 {
        fill: #e9a22a;
      }
    </style>
    <clipPath id="clippath">
      <circle class="st57" cx="540" cy="514.04" r="472.83" transform="translate(-205.32 532.4) rotate(-45)"/>
    </clipPath>
    <clipPath id="clippath-1">
      <polygon class="st57" points="767.03 346.29 115.09 346.29 29.04 1075.49 853.07 1075.49 767.03 346.29"/>
    </clipPath>
    <clipPath id="clippath-2">
      <polygon class="st57" points="977.97 482.14 326.03 482.14 239.98 1211.34 1064.01 1211.34 977.97 482.14"/>
    </clipPath>
    <clipPath id="clippath-3">
      <circle class="st57" cx="-716.96" cy="514.04" r="472.83" transform="translate(-573.47 -356.41) rotate(-45)"/>
    </clipPath>
    <linearGradient id="linear-gradient" x1="-1227.92" y1="710.89" x2="-403.89" y2="710.89" gradientUnits="userSpaceOnUse">
      <stop offset="0" stop-color="#273c5d"/>
      <stop offset=".13" stop-color="#304c77"/>
      <stop offset=".31" stop-color="#395d93"/>
      <stop offset=".48" stop-color="#406aa7"/>
      <stop offset=".66" stop-color="#4471b3"/>
      <stop offset=".83" stop-color="#4674b7"/>
    </linearGradient>
    <linearGradient id="linear-gradient1" x1="-1016.98" y1="846.74" x2="-192.94" y2="846.74" gradientUnits="userSpaceOnUse">
      <stop offset=".3" stop-color="#de5d2c"/>
      <stop offset="1" stop-color="#ebb029"/>
    </linearGradient>
  </defs>
  <g>
    <g>
      <g class="st153">
        <g>
          <g class="st70">
            <path class="st52" d="M29.04,346.29v729.2V346.29Z"/>
            <rect class="st52" x="29.04" y="346.29" width="7.63" height="729.2"/>
            <rect class="st114" x="36.67" y="346.29" width="7.63" height="729.2"/>
            <rect class="st145" x="44.3" y="346.29" width="7.63" height="729.2"/>
            <rect class="st29" x="51.93" y="346.29" width="7.63" height="729.2"/>
            <rect class="st96" x="59.56" y="346.29" width="7.63" height="729.2"/>
            <rect class="st128" x="67.19" y="346.29" width="7.63" height="729.2"/>
            <rect class="st90" x="74.82" y="346.29" width="7.63" height="729.2"/>
            <rect class="st105" x="82.45" y="346.29" width="7.63" height="729.2"/>
            <rect class="st81" x="90.08" y="346.29" width="7.63" height="729.2"/>
            <rect class="st98" x="97.71" y="346.29" width="7.63" height="729.2"/>
            <rect class="st74" x="105.34" y="346.29" width="7.63" height="729.2"/>
            <rect class="st48" x="112.97" y="346.29" width="7.63" height="729.2"/>
            <rect class="st55" x="120.6" y="346.29" width="7.63" height="729.2"/>
            <rect class="st134" x="128.23" y="346.29" width="7.63" height="729.2"/>
            <rect class="st113" x="135.86" y="346.29" width="7.63" height="729.2"/>
            <rect class="st130" x="143.49" y="346.29" width="7.63" height="729.2"/>
            <rect class="st41" x="151.12" y="346.29" width="7.63" height="729.2"/>
            <rect class="st78" x="158.75" y="346.29" width="7.63" height="729.2"/>
            <rect class="st56" x="166.38" y="346.29" width="7.63" height="729.2"/>
            <rect class="st1" x="174.01" y="346.29" width="7.63" height="729.2"/>
            <rect class="st95" x="181.64" y="346.29" width="7.63" height="729.2"/>
            <rect class="st146" x="189.27" y="346.29" width="7.63" height="729.2"/>
            <rect class="st58" x="196.9" y="346.29" width="7.63" height="729.2"/>
            <rect class="st64" x="204.53" y="346.29" width="7.63" height="729.2"/>
            <rect class="st44" x="212.16" y="346.29" width="7.63" height="729.2"/>
            <rect class="st53" x="219.79" y="346.29" width="7.63" height="729.2"/>
            <rect class="st76" x="227.42" y="346.29" width="7.63" height="729.2"/>
            <rect class="st162" x="235.05" y="346.29" width="7.63" height="729.2"/>
            <rect class="st68" x="242.68" y="346.29" width="7.63" height="729.2"/>
            <rect class="st126" x="250.31" y="346.29" width="7.63" height="729.2"/>
            <rect class="st39" x="257.94" y="346.29" width="7.63" height="729.2"/>
            <rect class="st122" x="265.57" y="346.29" width="7.63" height="729.2"/>
            <rect class="st21" x="273.2" y="346.29" width="7.63" height="729.2"/>
            <rect class="st80" x="280.83" y="346.29" width="7.63" height="729.2"/>
            <rect class="st148" x="288.46" y="346.29" width="7.63" height="729.2"/>
            <rect class="st54" x="296.09" y="346.29" width="7.63" height="729.2"/>
            <rect class="st110" x="303.72" y="346.29" width="7.63" height="729.2"/>
            <rect class="st158" x="311.35" y="346.29" width="7.63" height="729.2"/>
            <rect class="st108" x="318.98" y="346.29" width="7.63" height="729.2"/>
            <rect class="st13" x="326.61" y="346.29" width="7.63" height="729.2"/>
            <rect class="st106" x="334.24" y="346.29" width="7.63" height="729.2"/>
            <rect class="st72" x="341.87" y="346.29" width="7.63" height="729.2"/>
            <rect class="st63" x="349.5" y="346.29" width="7.63" height="729.2"/>
            <rect class="st111" x="357.13" y="346.29" width="7.63" height="729.2"/>
            <rect class="st137" x="364.76" y="346.29" width="7.63" height="729.2"/>
            <rect class="st149" x="372.39" y="346.29" width="7.63" height="729.2"/>
            <rect class="st84" x="380.02" y="346.29" width="7.63" height="729.2"/>
            <rect class="st140" x="387.65" y="346.29" width="7.63" height="729.2"/>
            <rect class="st121" x="395.28" y="346.29" width="7.63" height="729.2"/>
            <rect class="st30" x="402.91" y="346.29" width="7.63" height="729.2"/>
            <rect class="st159" x="410.54" y="346.29" width="7.63" height="729.2"/>
            <rect class="st144" x="418.17" y="346.29" width="7.63" height="729.2"/>
            <rect class="st18" x="425.8" y="346.29" width="7.63" height="729.2"/>
            <rect class="st24" x="433.43" y="346.29" width="7.63" height="729.2"/>
            <rect class="st77" x="441.06" y="346.29" width="7.63" height="729.2"/>
            <rect class="st0" x="448.69" y="346.29" width="7.63" height="729.2"/>
            <rect class="st124" x="456.31" y="346.29" width="7.63" height="729.2"/>
            <rect class="st43" x="463.94" y="346.29" width="7.63" height="729.2"/>
            <rect class="st91" x="471.57" y="346.29" width="7.63" height="729.2"/>
            <rect class="st136" x="479.2" y="346.29" width="7.63" height="729.2"/>
            <rect class="st51" x="486.83" y="346.29" width="7.63" height="729.2"/>
            <rect class="st51" x="494.46" y="346.29" width="7.63" height="729.2"/>
            <rect class="st141" x="502.09" y="346.29" width="7.63" height="729.2"/>
            <rect class="st141" x="509.72" y="346.29" width="7.63" height="729.2"/>
            <rect class="st155" x="517.35" y="346.29" width="7.63" height="729.2"/>
            <rect class="st38" x="524.98" y="346.29" width="7.63" height="729.2"/>
            <rect class="st38" x="532.61" y="346.29" width="7.63" height="729.2"/>
            <rect class="st156" x="540.24" y="346.29" width="7.63" height="729.2"/>
            <rect class="st156" x="547.87" y="346.29" width="7.63" height="729.2"/>
            <rect class="st156" x="555.5" y="346.29" width="7.63" height="729.2"/>
            <rect class="st104" x="563.13" y="346.29" width="7.63" height="729.2"/>
            <rect class="st101" x="570.76" y="346.29" width="7.63" height="729.2"/>
            <rect class="st22" x="578.39" y="346.29" width="7.63" height="729.2"/>
            <rect class="st22" x="586.02" y="346.29" width="7.63" height="729.2"/>
            <rect class="st22" x="593.65" y="346.29" width="7.63" height="729.2"/>
            <rect class="st127" x="601.28" y="346.29" width="7.63" height="729.2"/>
            <rect class="st127" x="608.91" y="346.29" width="7.63" height="729.2"/>
            <rect class="st127" x="616.54" y="346.29" width="7.63" height="729.2"/>
            <rect class="st61" x="624.17" y="346.29" width="7.63" height="729.2"/>
            <rect class="st61" x="631.8" y="346.29" width="7.63" height="729.2"/>
            <rect class="st61" x="639.43" y="346.29" width="7.63" height="729.2"/>
            <rect class="st154" x="647.06" y="346.29" width="7.63" height="729.2"/>
            <rect class="st154" x="654.69" y="346.29" width="7.63" height="729.2"/>
            <rect class="st157" x="662.32" y="346.29" width="7.63" height="729.2"/>
            <rect class="st157" x="669.95" y="346.29" width="7.63" height="729.2"/>
            <rect class="st157" x="677.58" y="346.29" width="7.63" height="729.2"/>
            <rect class="st157" x="685.21" y="346.29" width="7.63" height="729.2"/>
            <rect class="st157" x="692.84" y="346.29" width="7.63" height="729.2"/>
            <rect class="st157" x="700.47" y="346.29" width="7.63" height="729.2"/>
            <rect class="st157" x="708.1" y="346.29" width="7.63" height="729.2"/>
            <rect class="st157" x="715.73" y="346.29" width="137.34" height="729.2"/>
          </g>
          <g>
            <path class="st35" d="M679.71,415.83c0,20.79-16.84,37.64-37.66,37.64s-37.62-16.85-37.62-37.64,16.84-37.63,37.62-37.63,37.66,16.85,37.66,37.63Z"/>
            <path class="st35" d="M277.68,415.83c0,20.79-16.84,37.64-37.64,37.64s-37.64-16.85-37.64-37.64,16.85-37.63,37.64-37.63,37.64,16.85,37.64,37.63Z"/>
            <path class="st99" d="M642.05,434.16c-10.12,0-18.3-8.2-18.3-18.33v-75.03c0-100.74-81.95-182.69-182.7-182.69s-182.68,81.95-182.68,182.69v75.03c0,10.13-8.21,18.33-18.33,18.33s-18.31-8.2-18.31-18.33v-75.03c0-120.95,98.38-219.32,219.32-219.32s219.31,98.38,219.31,219.32v75.03c0,10.13-8.18,18.33-18.31,18.33Z"/>
          </g>
        </g>
        <g>
          <g class="st135">
            <rect class="st2" x="239.98" y="482.14" width="247.19" height="729.19"/>
            <rect class="st2" x="487.16" y="482.14" width="6.95" height="729.19"/>
            <rect class="st3" x="494.11" y="482.14" width="6.95" height="729.19"/>
            <rect class="st119" x="501.06" y="482.14" width="6.95" height="729.19"/>
            <rect class="st31" x="508.01" y="482.14" width="6.95" height="729.19"/>
            <rect class="st65" x="514.96" y="482.14" width="6.95" height="729.19"/>
            <rect class="st28" x="521.91" y="482.14" width="6.95" height="729.19"/>
            <rect class="st97" x="528.86" y="482.14" width="6.95" height="729.19"/>
            <rect class="st147" x="535.81" y="482.14" width="6.95" height="729.19"/>
            <rect class="st26" x="542.76" y="482.14" width="6.95" height="729.19"/>
            <rect class="st4" x="549.71" y="482.14" width="6.95" height="729.19"/>
            <rect class="st25" x="556.66" y="482.14" width="6.95" height="729.19"/>
            <rect class="st47" x="563.61" y="482.14" width="6.95" height="729.19"/>
            <rect class="st103" x="570.56" y="482.14" width="6.95" height="729.19"/>
            <rect class="st42" x="577.51" y="482.14" width="6.95" height="729.19"/>
            <rect class="st67" x="584.46" y="482.14" width="6.95" height="729.19"/>
            <rect class="st82" x="591.41" y="482.14" width="6.95" height="729.19"/>
            <rect class="st131" x="598.36" y="482.14" width="6.95" height="729.19"/>
            <rect class="st66" x="605.31" y="482.14" width="6.95" height="729.19"/>
            <rect class="st132" x="612.26" y="482.14" width="6.95" height="729.19"/>
            <rect class="st12" x="619.21" y="482.14" width="6.95" height="729.19"/>
            <rect class="st71" x="626.16" y="482.14" width="6.95" height="729.19"/>
            <rect class="st11" x="633.11" y="482.14" width="6.95" height="729.19"/>
            <rect class="st69" x="640.06" y="482.14" width="6.95" height="729.19"/>
            <rect class="st37" x="647.01" y="482.14" width="6.95" height="729.19"/>
            <rect class="st163" x="653.96" y="482.14" width="6.95" height="729.19"/>
            <rect class="st59" x="660.91" y="482.14" width="6.95" height="729.19"/>
            <rect class="st45" x="667.86" y="482.14" width="6.95" height="729.19"/>
            <rect class="st151" x="674.81" y="482.14" width="6.95" height="729.19"/>
            <rect class="st142" x="681.76" y="482.14" width="6.95" height="729.19"/>
            <rect class="st15" x="688.71" y="482.14" width="6.95" height="729.19"/>
            <rect class="st32" x="695.66" y="482.14" width="6.95" height="729.19"/>
            <rect class="st139" x="702.61" y="482.14" width="6.95" height="729.19"/>
            <rect class="st50" x="709.56" y="482.14" width="6.95" height="729.19"/>
            <rect class="st10" x="716.51" y="482.14" width="6.95" height="729.19"/>
            <rect class="st89" x="723.46" y="482.14" width="6.95" height="729.19"/>
            <rect class="st83" x="730.41" y="482.14" width="6.95" height="729.19"/>
            <rect class="st109" x="737.36" y="482.14" width="6.95" height="729.19"/>
            <rect class="st60" x="744.31" y="482.14" width="6.95" height="729.19"/>
            <rect class="st129" x="751.26" y="482.14" width="6.95" height="729.19"/>
            <rect class="st20" x="758.21" y="482.14" width="6.95" height="729.19"/>
            <rect class="st94" x="765.16" y="482.14" width="6.95" height="729.19"/>
            <rect class="st8" x="772.11" y="482.14" width="6.95" height="729.19"/>
            <rect class="st115" x="779.06" y="482.14" width="6.95" height="729.19"/>
            <rect class="st125" x="786.01" y="482.14" width="6.95" height="729.19"/>
            <rect class="st116" x="792.96" y="482.14" width="6.95" height="729.19"/>
            <rect class="st17" x="799.91" y="482.14" width="6.95" height="729.19"/>
            <rect class="st123" x="806.86" y="482.14" width="6.95" height="729.19"/>
            <rect class="st75" x="813.81" y="482.14" width="6.95" height="729.19"/>
            <rect class="st73" x="820.76" y="482.14" width="6.95" height="729.19"/>
            <rect class="st33" x="827.71" y="482.14" width="6.95" height="729.19"/>
            <rect class="st133" x="834.66" y="482.14" width="6.95" height="729.19"/>
            <rect class="st152" x="841.61" y="482.14" width="6.95" height="729.19"/>
            <rect class="st117" x="848.56" y="482.14" width="6.95" height="729.19"/>
            <rect class="st138" x="855.51" y="482.14" width="6.95" height="729.19"/>
            <rect class="st6" x="862.46" y="482.14" width="6.95" height="729.19"/>
            <rect class="st19" x="869.41" y="482.14" width="6.95" height="729.19"/>
            <rect class="st87" x="876.36" y="482.14" width="6.95" height="729.19"/>
            <rect class="st14" x="883.31" y="482.14" width="6.95" height="729.19"/>
            <rect class="st5" x="890.26" y="482.14" width="6.95" height="729.19"/>
            <rect class="st107" x="897.21" y="482.14" width="6.95" height="729.19"/>
            <rect class="st49" x="904.16" y="482.14" width="6.95" height="729.19"/>
            <rect class="st9" x="911.11" y="482.14" width="6.95" height="729.19"/>
            <rect class="st86" x="918.06" y="482.14" width="6.95" height="729.19"/>
            <rect class="st88" x="925.01" y="482.14" width="6.95" height="729.19"/>
            <rect class="st27" x="931.96" y="482.14" width="6.95" height="729.19"/>
            <rect class="st160" x="938.91" y="482.14" width="6.95" height="729.19"/>
            <rect class="st34" x="945.86" y="482.14" width="6.95" height="729.19"/>
            <rect class="st120" x="952.81" y="482.14" width="6.95" height="729.19"/>
            <rect class="st164" x="959.76" y="482.14" width="6.95" height="729.19"/>
            <rect class="st62" x="966.71" y="482.14" width="6.95" height="729.19"/>
            <rect class="st161" x="973.66" y="482.14" width="6.95" height="729.19"/>
            <rect class="st85" x="980.61" y="482.14" width="6.95" height="729.19"/>
            <rect class="st23" x="987.56" y="482.14" width="6.95" height="729.19"/>
            <rect class="st16" x="994.51" y="482.14" width="6.95" height="729.19"/>
            <rect class="st7" x="1001.46" y="482.14" width="6.95" height="729.19"/>
            <rect class="st102" x="1008.41" y="482.14" width="6.95" height="729.19"/>
            <rect class="st143" x="1015.36" y="482.14" width="6.95" height="729.19"/>
            <rect class="st46" x="1022.31" y="482.14" width="6.95" height="729.19"/>
            <rect class="st100" x="1029.26" y="482.14" width="6.95" height="729.19"/>
            <rect class="st112" x="1036.21" y="482.14" width="6.95" height="729.19"/>
            <rect class="st93" x="1043.16" y="482.14" width="6.95" height="729.19"/>
            <rect class="st79" x="1050.11" y="482.14" width="6.95" height="729.19"/>
            <rect class="st118" x="1057.06" y="482.14" width="6.95" height="729.19"/>
            <path class="st118" d="M1064.01,1211.34V482.14v729.19Z"/>
          </g>
          <g>
            <path class="st35" d="M890.65,551.69c0,20.77-16.86,37.62-37.64,37.62s-37.64-16.85-37.64-37.62,16.84-37.65,37.64-37.65,37.64,16.85,37.64,37.65Z"/>
            <path class="st35" d="M488.62,551.69c0,20.77-16.84,37.62-37.63,37.62s-37.65-16.85-37.65-37.62,16.85-37.65,37.65-37.65,37.63,16.85,37.63,37.65Z"/>
            <path class="st99" d="M853.01,570c-10.14,0-18.34-8.2-18.34-18.31v-75.04c0-100.74-81.93-182.69-182.69-182.69s-182.67,81.95-182.67,182.69v75.04c0,10.12-8.2,18.31-18.32,18.31s-18.31-8.2-18.31-18.31v-75.04c0-120.94,98.4-219.33,219.31-219.33s219.34,98.39,219.34,219.33v75.04c0,10.12-8.2,18.31-18.32,18.31Z"/>
          </g>
        </g>
      </g>
      <polygon class="st35" points="850.17 978.47 776.84 844.41 900.79 831.5 616.21 681.65 588.77 1002.13 666.53 904.71 739.86 1038.8 850.17 978.47"/>
    </g>
    <g>
      <path class="st35" d="M266.99,662.53v11.11h-46.31v-59.81h45.2v11.11h-31.44v12.99h27.77v10.76h-27.77v13.84h32.55Z"/>
      <path class="st35" d="M334.48,660.82h-27.77l-5.3,12.82h-14.18l26.66-59.81h13.67l26.74,59.81h-14.52l-5.3-12.82ZM330.12,650.31l-9.48-22.9-9.48,22.9h18.97Z"/>
      <path class="st35" d="M383.57,672.74c-4.41-1.28-7.96-2.95-10.64-5l4.7-10.42c2.56,1.88,5.61,3.39,9.14,4.53,3.53,1.14,7.06,1.71,10.59,1.71,3.93,0,6.83-.58,8.71-1.75,1.88-1.17,2.82-2.72,2.82-4.66,0-1.42-.56-2.61-1.67-3.55-1.11-.94-2.54-1.69-4.27-2.26-1.74-.57-4.09-1.2-7.05-1.88-4.56-1.08-8.29-2.16-11.19-3.25-2.9-1.08-5.4-2.82-7.48-5.21-2.08-2.39-3.12-5.58-3.12-9.57,0-3.47.94-6.62,2.82-9.44,1.88-2.82,4.71-5.05,8.5-6.71,3.79-1.65,8.42-2.48,13.88-2.48,3.82,0,7.55.46,11.19,1.37,3.64.91,6.83,2.22,9.57,3.93l-4.27,10.51c-5.53-3.13-11.05-4.7-16.58-4.7-3.87,0-6.74.63-8.59,1.88-1.85,1.25-2.78,2.91-2.78,4.96s1.07,3.58,3.2,4.57c2.14,1,5.4,1.98,9.78,2.95,4.56,1.08,8.29,2.17,11.19,3.25,2.9,1.08,5.4,2.79,7.48,5.13,2.08,2.34,3.12,5.5,3.12,9.48,0,3.42-.95,6.54-2.86,9.36-1.91,2.82-4.77,5.06-8.59,6.71-3.82,1.65-8.46,2.48-13.93,2.48-4.73,0-9.3-.64-13.71-1.92Z"/>
      <path class="st35" d="M476.65,652.45v21.19h-13.84v-21.36l-23.15-38.45h14.7l15.98,26.57,15.98-26.57h13.58l-23.24,38.62Z"/>
      <path class="st35" d="M569.99,672.74c-4.42-1.28-7.96-2.95-10.64-5l4.7-10.42c2.56,1.88,5.61,3.39,9.14,4.53,3.53,1.14,7.06,1.71,10.59,1.71,3.93,0,6.83-.58,8.71-1.75,1.88-1.17,2.82-2.72,2.82-4.66,0-1.42-.55-2.61-1.67-3.55-1.11-.94-2.54-1.69-4.27-2.26-1.74-.57-4.09-1.2-7.05-1.88-4.56-1.08-8.29-2.16-11.19-3.25-2.91-1.08-5.4-2.82-7.48-5.21-2.08-2.39-3.12-5.58-3.12-9.57,0-3.47.94-6.62,2.82-9.44,1.88-2.82,4.71-5.05,8.5-6.71,3.79-1.65,8.42-2.48,13.88-2.48,3.82,0,7.55.46,11.19,1.37,3.64.91,6.83,2.22,9.57,3.93l-4.27,10.51c-5.53-3.13-11.05-4.7-16.58-4.7-3.87,0-6.74.63-8.59,1.88-1.85,1.25-2.78,2.91-2.78,4.96s1.07,3.58,3.2,4.57c2.14,1,5.4,1.98,9.78,2.95,4.56,1.08,8.29,2.17,11.19,3.25,2.91,1.08,5.4,2.79,7.48,5.13,2.08,2.34,3.12,5.5,3.12,9.48,0,3.42-.95,6.54-2.86,9.36-1.91,2.82-4.77,5.06-8.59,6.71-3.82,1.65-8.46,2.48-13.93,2.48-4.73,0-9.3-.64-13.71-1.92Z"/>
      <path class="st35" d="M690.5,613.83v59.81h-13.84v-24.52h-27.17v24.52h-13.84v-59.81h13.84v23.58h27.17v-23.58h13.84Z"/>
      <path class="st35" d="M733.94,670.65c-4.99-2.68-8.89-6.37-11.71-11.06s-4.23-9.98-4.23-15.85,1.41-11.15,4.23-15.85,6.72-8.39,11.71-11.06c4.98-2.68,10.58-4.02,16.79-4.02s11.79,1.34,16.75,4.02c4.96,2.68,8.86,6.37,11.71,11.06,2.85,4.7,4.27,9.98,4.27,15.85s-1.42,11.15-4.27,15.85c-2.85,4.7-6.75,8.39-11.71,11.06-4.96,2.68-10.54,4.02-16.75,4.02s-11.8-1.34-16.79-4.02ZM760.3,660.44c2.85-1.62,5.08-3.89,6.71-6.79,1.62-2.91,2.43-6.21,2.43-9.91s-.81-7.01-2.43-9.91c-1.62-2.9-3.86-5.17-6.71-6.79-2.85-1.62-6.04-2.43-9.57-2.43s-6.72.81-9.57,2.43c-2.85,1.62-5.08,3.89-6.71,6.79-1.62,2.91-2.44,6.21-2.44,9.91s.81,7.01,2.44,9.91c1.62,2.9,3.86,5.17,6.71,6.79,2.85,1.62,6.04,2.43,9.57,2.43s6.72-.81,9.57-2.43Z"/>
      <path class="st35" d="M850.65,616.48c3.9,1.77,6.91,4.27,9.01,7.52,2.11,3.25,3.16,7.09,3.16,11.53s-1.05,8.22-3.16,11.49c-2.11,3.28-5.11,5.78-9.01,7.52-3.9,1.74-8.5,2.61-13.8,2.61h-12.05v16.49h-13.84v-59.81h25.89c5.3,0,9.9.88,13.8,2.65ZM845.57,643.18c2.16-1.79,3.25-4.34,3.25-7.65s-1.08-5.94-3.25-7.73c-2.17-1.79-5.33-2.69-9.48-2.69h-11.28v20.76h11.28c4.16,0,7.32-.9,9.48-2.69Z"/>
    </g>
  </g>
  <g>
    <g>
      <g class="st92">
        <g>
          <polygon class="st150" points="-489.93 346.29 -1141.87 346.29 -1227.92 1075.49 -403.89 1075.49 -489.93 346.29"/>
          <g>
            <path class="st35" d="M-577.25,415.83c0,20.79-16.84,37.64-37.66,37.64s-37.62-16.85-37.62-37.64,16.84-37.63,37.62-37.63,37.66,16.85,37.66,37.63Z"/>
            <path class="st35" d="M-979.27,415.83c0,20.79-16.84,37.64-37.64,37.64s-37.64-16.85-37.64-37.64,16.85-37.63,37.64-37.63,37.64,16.85,37.64,37.63Z"/>
            <path class="st99" d="M-614.91,434.16c-10.12,0-18.3-8.2-18.3-18.33v-75.03c0-100.74-81.95-182.69-182.7-182.69s-182.68,81.95-182.68,182.69v75.03c0,10.13-8.21,18.33-18.33,18.33s-18.31-8.2-18.31-18.33v-75.03c0-120.95,98.38-219.32,219.32-219.32s219.31,98.38,219.31,219.32v75.03c0,10.13-8.18,18.33-18.31,18.33Z"/>
          </g>
        </g>
        <g>
          <polygon class="st40" points="-278.99 482.14 -930.93 482.14 -1016.98 1211.34 -192.94 1211.34 -278.99 482.14"/>
          <g>
            <path class="st35" d="M-366.31,551.69c0,20.77-16.86,37.62-37.64,37.62s-37.64-16.85-37.64-37.62,16.84-37.65,37.64-37.65,37.64,16.85,37.64,37.65Z"/>
            <path class="st35" d="M-768.34,551.69c0,20.77-16.84,37.62-37.63,37.62s-37.65-16.85-37.65-37.62,16.85-37.65,37.65-37.65,37.63,16.85,37.63,37.65Z"/>
            <path class="st99" d="M-403.95,570c-10.14,0-18.34-8.2-18.34-18.31v-75.04c0-100.74-81.93-182.69-182.69-182.69s-182.67,81.95-182.67,182.69v75.04c0,10.12-8.2,18.31-18.32,18.31s-18.31-8.2-18.31-18.31v-75.04c0-120.94,98.4-219.33,219.31-219.33s219.34,98.39,219.34,219.33v75.04c0,10.12-8.2,18.31-18.32,18.31Z"/>
          </g>
        </g>
      </g>
      <polygon class="st35" points="-406.79 978.47 -480.12 844.41 -356.17 831.5 -640.75 681.65 -668.19 1002.13 -590.43 904.71 -517.1 1038.8 -406.79 978.47"/>
    </g>
    <text class="st36" transform="translate(-1043.37 673.64)"><tspan x="0" y="0">EASY SHOP</tspan></text>
  </g>
</svg>